<svg id="svg" xmlns="http://www.w3.org/2000/svg" xmlns:xlink="http://www.w3.org/1999/xlink" width="400" height="479.7118847539016" viewBox="0, 0, 400,479.7118847539016"><g id="svgg"><path id="path0" d="M116.236 317.141 C 116.120 317.329,114.625 317.606,112.913 317.756 C 107.369 318.243,105.288 318.908,98.193 322.462 C 92.987 325.069,85.756 331.500,83.195 335.800 C 82.671 336.680,82.123 337.490,81.977 337.600 C 80.888 338.422,78.722 343.772,78.933 345.121 C 79.390 348.054,82.408 349.930,88.154 350.856 C 89.489 351.071,90.676 351.374,90.791 351.530 C 90.906 351.686,91.900 352.040,93.000 352.316 C 100.165 354.119,107.769 360.697,109.895 366.933 C 110.283 368.070,110.718 369.090,110.861 369.200 C 111.383 369.599,112.000 374.229,112.000 377.740 C 112.000 381.745,111.662 381.941,110.932 378.362 C 109.392 370.812,101.933 363.341,93.800 361.202 C 92.700 360.913,91.620 360.542,91.400 360.379 C 91.180 360.216,88.903 359.687,86.340 359.205 C 78.005 357.637,75.269 359.201,75.802 365.228 C 76.139 369.031,76.038 369.082,74.237 366.009 C 72.421 362.911,70.505 356.390,70.023 351.674 C 69.095 342.578,62.599 340.474,52.577 346.022 C 47.555 348.803,46.469 349.817,41.940 355.962 C 35.343 364.913,35.373 376.594,42.000 379.461 C 42.770 379.795,43.713 380.232,44.095 380.434 C 44.477 380.635,46.637 380.804,48.895 380.808 C 62.351 380.834,70.547 384.561,79.735 394.833 C 88.795 404.961,97.182 407.970,111.500 406.226 C 115.516 405.737,114.358 406.881,108.800 408.895 C 104.228 410.552,92.488 410.277,88.200 408.413 C 87.320 408.031,86.240 407.592,85.800 407.438 C 84.774 407.080,79.526 403.952,79.000 403.386 C 76.496 400.689,71.674 397.600,69.969 397.600 C 68.601 397.600,68.630 397.574,62.000 404.829 C 57.471 409.785,52.226 413.115,46.000 414.986 C 44.790 415.350,43.575 415.742,43.300 415.857 C 41.674 416.538,43.244 415.024,45.696 413.546 C 48.694 411.739,55.600 405.433,55.600 404.503 C 55.600 404.213,55.863 403.874,56.185 403.750 C 58.075 403.025,61.332 394.118,60.487 391.987 C 60.088 390.978,56.887 389.600,54.945 389.600 C 54.513 389.600,53.952 389.392,53.698 389.138 C 53.104 388.544,43.188 388.484,41.916 389.068 C 41.412 389.299,39.920 389.816,38.600 390.216 C 37.280 390.616,35.155 391.542,33.879 392.272 C 32.602 393.002,31.477 393.600,31.379 393.600 C 29.549 393.600,21.221 403.729,20.197 407.200 C 20.035 407.750,19.760 408.380,19.587 408.600 C 16.862 412.057,17.380 427.030,20.394 431.928 C 22.032 434.591,26.715 437.525,29.420 437.582 C 29.871 437.592,30.432 437.792,30.667 438.027 C 31.962 439.322,41.961 437.866,46.121 435.777 C 50.039 433.809,48.046 436.318,43.655 438.883 C 37.191 442.657,33.600 443.599,28.673 442.812 C 26.326 442.437,24.730 441.843,21.062 439.981 C 16.723 437.777,13.035 441.455,13.021 448.000 C 12.978 469.185,42.465 474.353,49.054 454.315 L 50.200 450.830 52.000 450.588 C 52.990 450.454,54.160 450.194,54.600 450.010 C 55.040 449.826,56.570 449.370,58.000 448.997 C 64.915 447.195,67.076 441.794,63.680 434.800 C 61.545 430.403,63.302 420.336,66.755 417.182 C 69.482 414.691,73.117 413.231,71.055 415.454 C 69.796 416.812,68.799 419.000,67.596 423.048 C 66.407 427.049,69.302 436.535,72.692 439.746 C 74.533 441.489,77.539 443.426,79.751 444.295 C 80.658 444.651,81.760 445.168,82.200 445.443 C 82.640 445.719,84.350 446.246,86.000 446.615 C 87.650 446.984,89.392 447.470,89.872 447.695 C 91.019 448.234,100.151 448.250,101.303 447.715 C 101.796 447.486,103.518 447.006,105.129 446.648 C 112.989 444.901,120.204 439.883,125.903 432.200 C 126.425 431.497,127.600 428.790,127.602 428.286 C 127.604 428.019,127.871 427.290,128.196 426.667 C 131.485 420.361,130.961 401.792,127.299 394.891 L 125.949 392.348 127.074 393.070 C 128.768 394.157,131.200 396.467,131.200 396.989 C 131.200 397.243,131.740 397.968,132.400 398.600 C 133.060 399.232,133.600 399.981,133.600 400.263 C 133.600 400.545,134.054 401.769,134.609 402.982 C 136.524 407.168,136.644 418.860,134.799 421.400 C 134.639 421.620,134.100 423.420,133.600 425.400 C 133.100 427.380,132.535 429.199,132.344 429.443 C 131.004 431.152,130.424 439.989,131.519 442.000 C 133.298 445.266,140.907 450.149,146.200 451.422 C 147.740 451.792,149.337 452.269,149.750 452.482 C 150.725 452.985,160.475 452.985,161.450 452.482 C 161.863 452.269,163.406 451.802,164.881 451.444 C 170.197 450.151,175.768 446.601,178.400 442.827 C 179.449 441.325,179.732 436.523,178.836 435.444 C 177.250 433.533,176.409 424.211,177.448 420.067 C 178.908 414.247,184.675 406.877,188.709 405.678 C 194.871 403.846,198.464 404.978,193.000 407.029 C 186.993 409.284,182.922 417.127,183.282 425.749 C 183.548 432.087,185.688 434.939,191.600 436.827 C 193.030 437.284,194.632 437.870,195.161 438.129 C 196.408 438.741,206.331 438.761,207.639 438.155 C 208.168 437.910,209.583 437.383,210.784 436.984 C 211.986 436.585,213.722 435.751,214.642 435.129 C 215.563 434.508,216.446 434.000,216.605 434.000 C 216.897 434.000,219.336 432.083,220.350 431.057 C 222.391 428.991,225.471 424.499,226.093 422.682 C 226.335 421.977,226.747 421.040,227.010 420.600 C 227.939 419.043,228.524 414.169,228.291 409.928 C 228.055 405.635,227.769 404.420,226.161 400.889 C 225.633 399.728,225.200 398.667,225.200 398.530 C 225.200 398.026,222.440 394.161,221.251 393.000 C 220.575 392.340,220.006 391.620,219.986 391.400 C 219.929 390.763,216.499 388.420,213.786 387.164 C 210.374 385.585,206.263 384.835,197.400 384.176 C 189.849 383.614,181.642 382.647,180.600 382.195 C 179.940 381.909,178.507 381.349,177.415 380.951 C 173.965 379.692,170.800 375.708,170.800 372.625 C 170.800 371.185,171.210 371.336,172.949 373.416 C 174.468 375.233,177.136 377.198,178.092 377.202 C 178.371 377.204,179.134 377.483,179.787 377.824 C 182.240 379.103,200.961 380.402,204.000 379.503 C 205.863 378.952,205.888 378.921,207.974 374.461 C 209.667 370.840,215.433 367.209,219.500 367.202 C 221.316 367.199,221.124 367.697,218.823 368.949 C 212.026 372.648,210.332 380.253,215.913 382.017 C 221.454 383.768,225.283 386.714,227.328 390.800 C 231.356 398.849,237.446 401.616,239.988 396.551 C 240.305 395.918,240.783 395.130,241.048 394.800 C 242.799 392.622,243.808 381.651,242.619 377.711 C 241.990 375.626,239.334 369.696,238.808 369.200 C 238.691 369.090,238.092 368.325,237.477 367.500 C 236.862 366.675,236.175 366.000,235.949 366.000 C 235.723 366.000,235.043 365.505,234.437 364.900 C 233.831 364.295,232.540 363.276,231.568 362.635 C 230.596 361.995,229.080 360.989,228.200 360.401 C 220.664 355.362,214.030 355.360,203.800 360.393 C 192.095 366.152,184.931 366.206,182.781 360.551 C 182.275 359.218,182.421 359.076,183.771 359.589 C 186.101 360.475,192.383 359.820,195.426 358.373 C 196.321 357.948,197.292 357.600,197.585 357.600 C 199.243 357.600,204.800 352.611,204.800 351.122 C 204.800 350.813,205.008 350.352,205.263 350.097 C 205.582 349.778,205.599 349.473,205.318 349.117 C 205.094 348.833,204.783 348.070,204.628 347.421 C 203.192 341.429,191.663 331.593,184.189 329.983 C 182.875 329.699,181.556 329.280,181.259 329.051 C 179.813 327.937,171.168 328.250,166.446 329.587 C 160.241 331.345,157.529 332.790,152.381 337.083 C 148.998 339.904,142.808 348.836,142.798 350.910 C 142.796 351.180,142.514 351.940,142.170 352.599 C 140.369 356.053,139.667 366.013,141.131 367.338 C 146.440 372.142,168.037 357.365,170.675 347.125 C 171.061 345.626,171.517 344.400,171.689 344.400 C 172.348 344.400,172.049 354.696,171.382 354.952 C 171.042 355.082,170.485 355.866,170.144 356.694 C 169.272 358.811,167.089 362.022,165.740 363.172 C 165.113 363.706,163.610 364.989,162.400 366.021 C 159.798 368.241,154.642 371.021,152.435 371.394 C 146.517 372.394,146.097 377.723,151.531 382.865 C 164.554 395.185,165.408 396.463,165.386 403.600 C 165.371 408.452,165.333 408.592,162.876 412.874 C 161.663 414.988,158.790 418.523,158.511 418.245 C 158.242 417.976,159.265 413.487,159.735 412.876 C 160.295 412.147,160.304 404.349,159.746 403.164 C 159.496 402.634,159.059 401.390,158.775 400.400 C 158.330 398.846,157.573 397.553,154.000 392.243 C 153.205 391.062,147.660 385.600,147.255 385.600 C 146.702 385.600,141.200 379.942,141.200 379.373 C 141.200 379.073,140.840 378.635,140.400 378.400 C 139.960 378.165,139.600 377.779,139.600 377.544 C 139.600 377.309,139.100 376.370,138.488 375.458 C 137.877 374.546,137.035 372.630,136.618 371.200 C 136.201 369.770,135.732 368.420,135.576 368.200 C 135.036 367.438,134.712 365.069,134.433 359.847 C 134.030 352.294,132.124 348.683,124.400 340.836 C 121.618 338.009,120.838 337.354,118.082 335.525 C 115.983 334.131,106.609 334.483,105.600 335.993 C 105.310 336.427,102.121 338.000,101.533 338.000 C 99.614 338.000,107.157 332.238,110.721 330.980 C 112.108 330.491,113.353 329.980,113.488 329.845 C 114.108 329.225,119.472 329.621,121.000 330.400 C 121.863 330.840,122.765 331.200,123.004 331.200 C 123.718 331.200,127.381 334.639,128.633 336.484 C 129.274 337.428,130.023 338.344,130.299 338.520 C 130.574 338.696,130.800 339.009,130.800 339.216 C 130.800 340.452,136.331 347.579,137.299 347.591 C 139.580 347.620,146.535 335.888,146.531 332.018 C 146.527 327.343,141.822 322.788,134.687 320.551 C 133.855 320.290,132.930 319.873,132.630 319.625 C 131.959 319.068,124.548 317.600,122.409 317.600 C 121.550 317.600,120.736 317.420,120.600 317.200 C 120.299 316.713,116.532 316.663,116.236 317.141 " stroke="none" fill="#fbafbf" fill-rule="evenodd"></path><path id="path1" d="M218.800 172.028 L 218.800 344.056 217.957 343.928 C 217.360 343.837,216.938 343.275,216.511 342.000 C 216.179 341.010,215.755 340.104,215.569 339.986 C 215.383 339.868,214.956 339.113,214.619 338.308 C 214.283 337.503,213.781 336.699,213.504 336.522 C 213.227 336.345,212.730 335.719,212.400 335.131 C 210.784 332.253,206.012 327.329,202.400 324.814 C 201.630 324.277,200.910 323.719,200.800 323.573 C 200.690 323.427,199.835 322.920,198.900 322.446 C 197.965 321.972,197.200 321.407,197.200 321.192 C 197.200 320.976,196.975 320.799,196.700 320.798 C 196.425 320.796,195.733 320.552,195.163 320.254 C 194.592 319.956,193.467 319.589,192.663 319.438 C 191.858 319.287,191.200 319.005,191.200 318.810 C 191.200 318.437,188.088 317.449,185.400 316.970 C 184.520 316.813,183.672 316.486,183.515 316.242 C 183.083 315.574,166.324 315.629,166.100 316.300 C 166.008 316.575,165.527 316.800,165.031 316.800 C 163.742 316.800,157.885 318.341,157.621 318.750 C 156.684 320.200,153.226 318.329,152.279 315.860 C 152.135 315.487,151.699 315.067,151.309 314.927 C 150.919 314.787,150.269 314.331,149.864 313.914 C 149.460 313.498,148.933 313.222,148.695 313.302 C 148.456 313.381,147.797 312.969,147.230 312.385 C 146.664 311.802,145.326 310.995,144.258 310.592 C 143.190 310.189,142.107 309.650,141.852 309.395 C 141.351 308.894,136.410 307.200,135.450 307.200 C 135.129 307.200,134.807 307.024,134.733 306.809 C 134.567 306.321,125.806 304.800,123.160 304.800 C 122.082 304.800,121.200 304.620,121.200 304.400 C 121.200 304.171,120.000 304.000,118.400 304.000 C 116.800 304.000,115.600 304.171,115.600 304.400 C 115.600 304.620,114.718 304.800,113.640 304.800 C 111.161 304.800,102.312 306.297,102.019 306.766 C 101.899 306.959,100.990 307.328,100.000 307.585 C 96.925 308.385,95.429 308.973,94.625 309.700 C 94.198 310.085,93.557 310.400,93.200 310.400 C 92.843 310.400,92.202 310.723,91.775 311.118 C 91.349 311.514,90.145 312.250,89.100 312.754 C 88.055 313.259,87.200 313.823,87.200 314.009 C 87.200 314.194,86.869 314.451,86.465 314.579 C 86.061 314.708,85.128 315.350,84.393 316.006 C 83.658 316.663,82.942 317.200,82.803 317.200 C 82.477 317.200,75.602 324.021,75.594 324.351 C 75.591 324.488,74.871 325.396,73.994 326.368 C 73.117 327.340,72.400 328.335,72.400 328.579 C 72.400 328.823,72.040 329.330,71.600 329.707 C 71.160 330.084,70.800 330.684,70.800 331.041 C 70.800 331.794,68.024 331.486,67.524 330.678 C 67.121 330.025,57.113 330.060,56.895 330.714 C 56.806 330.981,56.343 331.203,55.867 331.207 C 54.326 331.219,49.248 332.695,48.634 333.309 C 48.306 333.637,47.220 334.242,46.220 334.653 C 45.221 335.064,44.402 335.517,44.401 335.660 C 44.401 335.804,43.785 336.284,43.033 336.728 C 41.396 337.693,41.079 337.959,37.100 341.688 C 35.395 343.285,34.000 344.825,34.000 345.109 C 34.000 345.393,33.723 345.731,33.385 345.861 C 33.047 345.991,32.511 346.598,32.195 347.211 C 31.878 347.823,31.380 348.566,31.089 348.862 C 30.797 349.158,30.127 350.300,29.600 351.400 C 29.073 352.500,28.445 353.600,28.204 353.845 C 27.964 354.090,27.416 355.350,26.985 356.645 C 26.555 357.940,26.097 359.090,25.967 359.200 C 25.586 359.523,24.400 364.655,24.400 365.982 C 24.400 366.652,24.220 367.200,24.000 367.200 C 23.767 367.200,23.600 368.533,23.600 370.400 C 23.600 372.160,23.739 373.600,23.909 373.600 C 24.079 373.600,24.445 374.815,24.722 376.300 C 25.000 377.785,25.491 379.200,25.813 379.444 C 26.890 380.259,26.526 381.750,25.100 382.371 C 23.799 382.938,23.223 383.382,20.387 386.000 C 19.553 386.770,18.045 388.111,17.036 388.981 C 16.026 389.850,15.200 390.801,15.200 391.093 C 15.200 391.386,14.916 391.734,14.569 391.867 C 14.223 392.000,13.776 392.538,13.577 393.062 C 13.377 393.586,12.761 394.187,12.207 394.397 C 11.653 394.608,11.200 395.033,11.200 395.341 C 11.200 395.650,10.930 396.126,10.600 396.400 C 10.270 396.674,10.000 397.221,10.000 397.616 C 10.000 398.010,9.865 398.393,9.700 398.467 C 9.535 398.540,8.954 399.950,8.408 401.600 C 7.862 403.250,7.184 404.979,6.900 405.442 C 6.245 406.511,5.200 411.917,5.200 414.235 C 5.200 415.206,5.020 416.000,4.800 416.000 C 4.563 416.000,4.400 417.467,4.400 419.600 C 4.400 421.733,4.563 423.200,4.800 423.200 C 5.020 423.200,5.199 423.785,5.197 424.500 C 5.196 425.215,5.411 427.220,5.675 428.956 C 6.153 432.095,6.150 432.116,5.156 432.956 C 3.967 433.960,2.800 435.742,2.800 436.553 C 2.800 436.872,2.601 437.200,2.358 437.281 C 0.283 437.972,-0.451 451.070,1.231 457.400 C 1.464 458.280,1.754 459.405,1.874 459.900 C 1.995 460.395,2.231 460.800,2.400 460.800 C 2.569 460.800,3.123 461.825,3.632 463.078 C 4.140 464.331,4.836 465.656,5.178 466.022 C 5.520 466.388,6.340 467.379,7.000 468.223 C 8.778 470.499,10.922 472.563,12.554 473.571 C 13.349 474.063,14.000 474.587,14.000 474.735 C 14.000 475.092,17.742 476.800,18.523 476.800 C 18.859 476.800,19.198 476.993,19.276 477.229 C 20.221 480.062,42.105 480.031,44.400 477.192 C 44.510 477.056,45.486 476.521,46.569 476.003 C 47.652 475.485,48.865 474.778,49.264 474.431 C 49.663 474.084,50.560 473.350,51.257 472.800 C 52.542 471.785,55.322 468.997,57.273 466.766 C 57.863 466.091,58.673 464.746,59.073 463.777 C 59.774 462.078,59.897 461.990,62.500 461.319 C 63.985 460.936,65.200 460.504,65.200 460.358 C 65.200 460.212,66.205 459.685,67.433 459.186 C 69.507 458.345,70.500 457.693,72.442 455.900 C 72.859 455.515,73.200 455.350,73.200 455.532 C 73.200 455.715,74.505 456.294,76.100 456.819 C 77.695 457.343,79.096 457.906,79.213 458.070 C 79.504 458.474,86.144 460.000,87.615 460.000 C 88.267 460.000,88.800 460.153,88.800 460.341 C 88.800 460.736,95.957 461.274,96.528 460.921 C 96.738 460.791,98.326 460.722,100.055 460.768 C 102.062 460.821,103.200 460.697,103.200 460.425 C 103.200 460.191,103.673 460.000,104.250 460.000 C 105.706 460.000,112.552 458.370,112.816 457.960 C 112.934 457.777,114.239 457.253,115.716 456.797 C 117.192 456.341,118.400 455.800,118.400 455.595 C 118.400 455.390,119.287 454.841,120.371 454.374 C 121.456 453.908,122.445 453.260,122.569 452.936 C 122.751 452.463,123.015 452.548,123.898 453.366 C 126.493 455.767,127.868 456.851,128.900 457.308 C 129.505 457.576,130.000 457.930,130.000 458.096 C 130.000 458.261,130.810 458.777,131.800 459.242 C 132.790 459.707,133.600 460.215,133.600 460.370 C 133.600 460.525,134.815 461.077,136.300 461.596 C 137.785 462.114,139.090 462.664,139.200 462.816 C 139.482 463.208,143.421 464.288,145.800 464.626 C 146.900 464.783,147.922 465.101,148.071 465.332 C 148.475 465.960,162.898 465.906,163.108 465.277 C 163.195 465.015,163.598 464.800,164.003 464.800 C 165.420 464.800,172.000 463.125,172.000 462.764 C 172.000 462.564,172.246 462.400,172.547 462.400 C 173.351 462.400,177.313 460.712,177.940 460.102 C 178.237 459.814,179.092 459.322,179.840 459.009 C 180.588 458.697,181.200 458.252,181.200 458.020 C 181.200 457.789,181.387 457.600,181.616 457.600 C 182.673 457.600,186.363 454.274,186.387 453.300 C 186.394 453.025,186.586 452.800,186.813 452.800 C 187.041 452.800,187.608 452.154,188.074 451.364 C 188.928 449.917,192.048 449.587,192.837 450.861 C 193.173 451.403,206.000 451.842,206.000 451.311 C 206.000 451.058,206.699 450.977,207.800 451.101 C 208.991 451.235,209.600 451.151,209.600 450.852 C 209.600 450.603,209.927 450.400,210.327 450.400 C 211.450 450.400,216.885 448.904,217.157 448.520 C 217.291 448.332,218.210 447.835,219.200 447.417 C 220.190 446.998,221.180 446.455,221.400 446.210 C 221.620 445.965,222.546 445.381,223.458 444.911 C 224.370 444.441,225.540 443.674,226.058 443.206 C 228.069 441.391,232.800 436.719,232.800 436.548 C 232.800 436.316,234.442 433.992,235.124 433.258 C 235.413 432.948,235.927 431.998,236.268 431.147 C 236.608 430.296,237.017 429.600,237.176 429.600 C 237.335 429.600,237.894 428.295,238.419 426.700 C 238.943 425.105,239.480 423.710,239.611 423.600 C 240.101 423.189,240.936 418.472,241.164 414.824 L 241.400 411.048 242.700 410.713 C 243.415 410.528,244.000 410.223,244.000 410.035 C 244.000 409.847,244.315 409.579,244.700 409.440 C 246.610 408.750,250.146 405.449,250.617 403.916 C 250.772 403.412,251.219 402.694,251.611 402.321 C 252.002 401.947,252.636 400.687,253.020 399.521 C 253.404 398.354,253.832 397.310,253.972 397.200 C 256.338 395.338,256.339 370.000,253.973 370.000 C 253.743 370.000,253.607 319.197,253.619 237.500 C 253.637 105.780,253.642 105.012,254.416 107.000 C 254.844 108.100,255.421 109.180,255.697 109.400 C 255.974 109.620,256.597 110.610,257.082 111.600 C 257.567 112.590,258.332 113.627,258.782 113.903 C 259.232 114.180,259.600 114.603,259.600 114.842 C 259.600 115.335,269.736 125.200,270.241 125.200 C 270.515 125.200,272.753 126.841,273.922 127.900 C 274.469 128.395,275.152 128.800,275.439 128.800 C 275.725 128.800,276.104 129.039,276.280 129.331 C 276.456 129.623,277.402 130.298,278.383 130.831 C 279.363 131.364,280.488 132.115,280.883 132.500 C 281.277 132.885,281.836 133.200,282.125 133.200 C 282.413 133.200,282.998 133.523,283.425 133.918 C 283.851 134.314,285.055 135.050,286.100 135.554 C 287.145 136.059,288.000 136.591,288.000 136.738 C 288.000 136.885,288.945 137.435,290.100 137.961 C 291.255 138.487,292.290 139.047,292.400 139.205 C 292.510 139.363,293.410 139.901,294.400 140.400 C 295.390 140.899,296.290 141.418,296.400 141.554 C 296.510 141.690,297.500 142.236,298.600 142.768 C 299.700 143.300,300.690 143.846,300.800 143.981 C 300.910 144.117,301.945 144.669,303.100 145.208 C 304.255 145.748,305.200 146.296,305.200 146.426 C 305.200 146.557,306.145 147.099,307.300 147.632 C 308.455 148.164,309.465 148.750,309.544 148.933 C 309.624 149.117,310.479 149.605,311.444 150.019 C 312.410 150.433,313.200 150.929,313.200 151.122 C 313.200 151.314,313.915 151.708,314.790 151.997 C 315.664 152.285,316.699 152.817,317.090 153.179 C 317.480 153.541,318.655 154.250,319.700 154.754 C 320.745 155.259,321.600 155.815,321.600 155.990 C 321.600 156.165,322.275 156.619,323.100 156.999 C 323.925 157.378,324.780 157.894,325.000 158.144 C 325.220 158.395,326.210 159.036,327.200 159.569 C 328.190 160.102,329.144 160.777,329.320 161.069 C 329.496 161.361,329.875 161.600,330.161 161.600 C 330.448 161.600,331.135 162.005,331.686 162.500 C 332.924 163.611,333.928 164.284,335.100 164.791 C 335.595 165.005,336.000 165.347,336.000 165.551 C 336.000 165.754,336.615 166.284,337.367 166.728 C 338.697 167.512,339.211 167.911,341.323 169.796 C 341.881 170.294,342.936 171.126,343.669 171.645 C 344.401 172.164,345.421 173.086,345.936 173.694 C 346.450 174.303,347.020 174.800,347.203 174.800 C 347.636 174.800,357.200 184.364,357.200 184.797 C 357.200 184.980,357.740 185.583,358.400 186.139 C 359.060 186.694,359.600 187.312,359.600 187.512 C 359.600 187.712,359.960 188.202,360.400 188.600 C 360.840 188.998,361.200 189.523,361.200 189.766 C 361.200 190.009,361.560 190.432,362.000 190.707 C 362.440 190.982,362.800 191.451,362.800 191.749 C 362.800 192.047,363.220 192.720,363.733 193.245 C 364.246 193.770,365.011 194.825,365.433 195.588 C 365.855 196.351,366.515 197.330,366.900 197.763 C 367.285 198.197,367.600 198.787,367.600 199.075 C 367.600 199.364,367.921 199.921,368.314 200.314 C 368.706 200.706,369.449 202.011,369.964 203.214 C 370.479 204.416,371.022 205.490,371.171 205.600 C 371.320 205.710,371.860 206.790,372.371 208.000 C 372.882 209.210,373.433 210.290,373.596 210.400 C 373.758 210.510,374.310 211.950,374.821 213.600 C 375.333 215.250,375.909 216.708,376.102 216.840 C 376.294 216.971,376.823 218.591,377.277 220.440 C 377.731 222.288,378.234 223.890,378.396 224.000 C 378.694 224.204,380.405 232.451,380.402 233.667 C 380.401 234.033,380.565 234.393,380.767 234.467 C 381.239 234.638,382.293 244.851,382.639 252.600 C 382.787 255.900,383.054 258.787,383.233 259.016 C 383.413 259.245,383.686 264.330,383.842 270.316 C 384.097 280.149,384.432 282.893,385.077 280.428 C 385.188 280.003,385.508 279.567,385.788 279.460 C 386.067 279.353,386.625 278.350,387.027 277.232 C 387.429 276.115,387.882 275.200,388.033 275.200 C 388.184 275.200,388.725 274.165,389.235 272.900 C 389.745 271.635,390.377 270.381,390.640 270.113 C 390.903 269.845,391.431 268.630,391.814 267.413 C 392.196 266.196,392.650 265.200,392.822 265.200 C 392.995 265.200,393.536 263.850,394.026 262.200 C 394.516 260.550,395.038 259.200,395.186 259.200 C 395.334 259.200,395.885 257.355,396.411 255.100 C 396.936 252.845,397.482 250.910,397.625 250.800 C 398.054 250.470,399.141 244.120,399.638 239.037 C 400.547 229.744,399.198 208.669,397.625 207.600 C 397.464 207.490,396.992 205.888,396.576 204.039 C 396.161 202.191,395.637 200.481,395.411 200.239 C 395.185 199.998,394.556 198.450,394.012 196.800 C 393.469 195.150,392.815 193.583,392.559 193.318 C 392.303 193.053,391.767 191.928,391.368 190.818 C 390.969 189.708,390.518 188.800,390.367 188.800 C 390.216 188.800,389.674 187.765,389.163 186.500 C 388.652 185.235,387.911 183.851,387.517 183.425 C 387.122 182.998,386.800 182.413,386.800 182.125 C 386.800 181.836,386.471 181.271,386.069 180.869 C 385.667 180.467,384.931 179.297,384.433 178.269 C 383.936 177.241,383.385 176.400,383.210 176.400 C 383.035 176.400,382.595 175.776,382.233 175.013 C 381.871 174.250,381.355 173.485,381.087 173.313 C 380.819 173.141,380.375 172.595,380.100 172.100 C 379.825 171.605,379.375 170.797,379.100 170.305 C 378.825 169.813,378.285 169.172,377.900 168.882 C 377.515 168.592,377.200 168.099,377.200 167.787 C 377.200 167.474,376.750 166.924,376.200 166.563 C 375.650 166.203,375.200 165.672,375.200 165.383 C 375.200 165.094,374.750 164.504,374.200 164.071 C 373.650 163.639,373.200 163.159,373.200 163.006 C 373.200 162.460,368.529 156.940,366.300 154.852 C 365.695 154.286,365.200 153.678,365.200 153.501 C 365.200 153.146,345.978 134.026,341.707 130.133 C 340.218 128.776,337.831 126.571,336.402 125.233 C 334.973 123.895,333.699 122.800,333.572 122.800 C 333.445 122.800,332.275 121.795,330.971 120.567 C 329.667 119.339,327.843 117.674,326.917 116.867 C 325.992 116.060,324.252 114.455,323.052 113.300 C 321.852 112.145,320.745 111.200,320.593 111.200 C 320.442 111.200,319.661 110.584,318.859 109.831 C 318.056 109.079,316.500 107.620,315.400 106.589 C 314.300 105.558,312.950 104.393,312.400 104.000 C 311.850 103.607,310.569 102.501,309.553 101.543 C 308.536 100.584,306.401 98.630,304.808 97.200 C 294.583 88.024,281.340 74.748,276.123 68.444 C 275.505 67.698,274.505 66.559,273.900 65.913 C 273.295 65.267,272.800 64.600,272.800 64.431 C 272.800 64.262,272.440 63.798,272.000 63.400 C 271.560 63.002,271.200 62.477,271.200 62.233 C 271.200 61.989,270.810 61.612,270.333 61.395 C 269.856 61.178,269.271 60.647,269.033 60.216 C 268.795 59.785,268.195 59.097,267.700 58.687 C 267.205 58.277,266.800 57.757,266.800 57.531 C 266.800 57.306,266.305 56.613,265.700 55.992 C 265.095 55.372,264.150 54.300,263.600 53.611 C 263.050 52.922,262.217 51.932,261.750 51.411 C 261.282 50.889,260.474 49.866,259.955 49.137 C 259.436 48.408,258.738 47.511,258.405 47.145 C 257.816 46.497,256.427 44.825,254.400 42.322 C 253.850 41.643,252.905 40.559,252.300 39.913 C 251.695 39.267,251.200 38.600,251.200 38.431 C 251.200 38.262,250.840 37.798,250.400 37.400 C 249.960 37.002,249.600 36.512,249.600 36.312 C 249.600 36.112,249.060 35.494,248.400 34.939 C 247.740 34.383,247.200 33.746,247.200 33.522 C 247.200 33.298,246.750 32.761,246.200 32.329 C 245.650 31.896,245.200 31.357,245.200 31.131 C 245.200 30.906,244.705 30.213,244.100 29.592 C 243.495 28.972,242.550 27.900,242.000 27.211 C 241.450 26.522,240.617 25.532,240.150 25.011 C 239.682 24.489,238.874 23.466,238.355 22.737 C 237.836 22.008,237.138 21.111,236.805 20.745 C 236.216 20.097,234.827 18.425,232.800 15.922 C 232.250 15.243,231.305 14.159,230.700 13.513 C 230.095 12.867,229.600 12.200,229.600 12.031 C 229.600 11.862,229.240 11.398,228.800 11.000 C 228.360 10.602,228.000 10.112,228.000 9.912 C 228.000 9.712,227.460 9.094,226.800 8.539 C 226.140 7.983,225.600 7.346,225.600 7.122 C 225.600 6.898,225.150 6.361,224.600 5.929 C 224.050 5.496,223.600 4.957,223.600 4.731 C 223.600 4.506,223.053 3.754,222.384 3.060 C 221.716 2.367,220.787 1.395,220.321 0.900 C 219.855 0.405,219.322 0.000,219.137 0.000 C 218.951 0.000,218.800 77.413,218.800 172.028 M125.800 317.591 C 136.239 319.778,145.333 324.920,146.230 329.141 C 146.354 329.723,146.632 330.632,146.847 331.161 C 147.110 331.806,147.100 332.260,146.819 332.541 C 146.589 332.771,146.400 333.427,146.400 333.998 C 146.400 335.080,143.111 341.847,142.229 342.580 C 141.950 342.811,141.347 343.630,140.888 344.400 C 137.969 349.295,136.534 348.774,131.519 341.000 C 123.408 328.424,115.207 326.591,104.328 334.925 C 101.327 337.223,101.282 338.106,104.245 336.562 C 105.682 335.813,107.169 335.200,107.549 335.200 C 107.929 335.200,108.459 334.981,108.726 334.714 C 109.026 334.414,110.479 334.223,112.532 334.214 C 121.393 334.176,134.400 348.587,134.400 358.442 C 134.400 361.069,134.604 362.413,135.880 368.200 C 137.030 373.419,140.315 378.844,144.833 382.988 C 155.584 392.849,159.035 397.688,160.039 404.310 C 160.597 407.984,160.099 413.632,158.982 416.306 C 158.075 418.475,158.515 418.273,160.697 415.518 C 164.452 410.778,165.367 408.453,165.385 403.600 C 165.409 397.011,163.462 393.956,153.892 385.563 C 146.482 379.066,145.391 375.477,149.889 372.395 C 150.666 371.863,151.752 371.367,152.302 371.293 C 157.665 370.575,168.584 361.294,170.178 356.100 C 170.330 355.604,170.802 355.013,171.227 354.786 C 171.929 354.410,171.997 353.921,171.972 349.486 L 171.944 344.600 171.229 346.600 C 170.108 349.734,168.799 352.400,168.381 352.400 C 168.172 352.400,168.000 352.665,168.000 352.988 C 168.000 355.250,153.011 366.741,149.966 366.814 C 149.655 366.821,148.680 367.175,147.800 367.600 C 145.514 368.704,142.139 368.670,140.926 367.530 C 139.924 366.589,139.537 360.021,140.360 357.919 C 140.557 357.413,141.137 355.425,141.648 353.500 C 142.159 351.575,142.703 350.000,142.857 350.000 C 143.012 350.000,143.344 349.376,143.596 348.613 C 145.977 341.397,155.385 332.963,164.600 329.784 C 169.924 327.947,182.760 328.064,185.400 329.973 C 185.620 330.132,186.700 330.593,187.800 330.998 C 192.572 332.755,200.868 339.634,202.792 343.431 C 203.118 344.074,203.828 345.291,204.369 346.136 C 208.579 352.704,198.080 360.542,185.945 359.891 L 182.489 359.706 183.304 361.086 C 186.291 366.148,192.356 365.829,204.090 359.994 C 213.419 355.354,221.067 355.529,228.877 360.562 C 236.763 365.644,239.640 368.781,241.600 374.440 C 242.088 375.848,242.764 377.557,243.101 378.238 C 243.799 379.645,243.643 388.173,242.887 390.000 C 242.659 390.550,242.159 392.080,241.775 393.400 C 239.432 401.462,232.134 400.954,227.985 392.439 C 225.596 387.537,221.985 384.277,217.448 382.927 C 209.889 380.677,210.575 374.299,218.995 368.560 L 220.989 367.200 219.561 367.200 C 218.776 367.200,218.014 367.319,217.868 367.465 C 217.722 367.611,216.708 368.046,215.615 368.431 C 211.701 369.809,208.745 372.586,207.600 375.959 C 207.215 377.094,206.447 378.170,205.458 378.964 L 203.916 380.200 197.658 380.106 C 194.216 380.054,190.590 379.835,189.600 379.619 C 188.610 379.404,186.180 379.031,184.200 378.792 C 180.565 378.352,177.568 377.660,177.200 377.175 C 177.090 377.030,176.433 376.621,175.740 376.266 C 175.047 375.911,173.743 374.761,172.843 373.710 C 171.074 371.647,170.794 371.923,171.624 374.911 C 172.526 378.158,176.035 380.785,180.867 381.828 C 182.480 382.177,184.340 382.621,185.000 382.816 C 185.660 383.011,188.720 383.360,191.800 383.591 C 208.230 384.825,208.360 384.843,213.400 386.663 C 219.335 388.805,225.384 396.318,227.681 404.402 C 228.638 407.769,229.100 414.854,228.448 416.174 C 228.224 416.628,227.768 418.113,227.436 419.473 C 223.977 433.608,203.984 443.555,191.703 437.250 C 191.316 437.051,190.280 436.555,189.400 436.148 C 177.899 430.823,182.160 409.268,195.400 405.797 L 196.600 405.482 195.009 405.080 C 190.665 403.981,183.370 408.234,180.372 413.611 C 176.879 419.877,175.686 429.012,177.997 431.796 C 178.850 432.824,179.670 439.242,179.199 441.206 C 178.707 443.256,174.616 448.000,173.340 448.000 C 173.102 448.000,172.479 448.329,171.954 448.732 C 161.530 456.725,137.235 452.641,131.243 441.888 C 130.411 440.396,130.005 435.328,130.664 434.669 C 130.926 434.408,132.130 430.099,134.205 422.000 C 134.797 419.690,135.443 417.487,135.641 417.105 C 135.838 416.723,135.999 414.383,135.998 411.905 C 135.995 404.959,133.535 399.106,128.710 394.567 C 126.461 392.451,125.742 392.358,127.413 394.400 C 131.879 399.860,131.770 419.990,127.220 429.820 C 124.151 436.450,115.993 443.498,108.745 445.782 C 107.565 446.153,106.240 446.613,105.800 446.803 C 95.026 451.467,74.282 445.272,69.991 436.111 C 69.293 434.620,68.550 433.072,68.339 432.670 C 66.120 428.440,67.529 418.962,70.930 415.250 L 71.800 414.301 70.800 414.591 C 70.250 414.750,69.600 415.133,69.356 415.440 C 69.112 415.748,68.743 416.000,68.537 416.000 C 67.663 416.000,65.186 419.161,64.462 421.200 C 62.481 426.783,62.405 428.652,63.919 434.600 C 66.678 445.442,64.569 448.671,53.619 450.370 C 50.001 450.931,50.162 450.824,49.833 452.891 C 48.898 458.762,42.308 465.191,35.568 466.808 C 27.889 468.650,17.693 463.809,14.756 456.926 C 14.304 455.867,13.648 454.370,13.298 453.600 C 12.018 450.786,12.360 444.958,13.949 442.480 C 16.335 438.760,18.417 438.262,22.526 440.428 C 27.237 442.911,32.488 443.285,37.943 441.526 C 40.597 440.670,41.822 439.998,45.272 437.500 C 46.412 436.675,47.492 436.000,47.672 436.000 C 47.853 436.000,48.000 435.829,48.000 435.620 C 48.000 435.251,46.809 435.665,43.291 437.255 C 37.121 440.045,25.814 438.196,21.465 433.686 C 17.837 429.924,15.713 414.804,18.340 411.446 C 18.532 411.201,18.811 410.460,18.959 409.800 C 20.291 403.870,31.392 391.200,35.256 391.200 C 35.450 391.200,36.372 390.851,37.304 390.424 C 43.997 387.361,58.843 388.343,60.788 391.977 C 61.245 392.831,61.338 394.528,60.950 394.916 C 60.813 395.054,60.316 396.309,59.846 397.705 C 58.065 402.998,47.173 414.800,44.070 414.800 C 43.837 414.800,43.548 414.961,43.427 415.157 C 43.053 415.761,46.403 414.831,49.105 413.581 C 50.508 412.931,51.825 412.400,52.031 412.400 C 53.741 412.400,62.553 404.816,64.846 401.371 C 68.332 396.134,70.864 396.189,77.309 401.645 C 79.238 403.278,82.298 405.370,84.108 406.295 C 87.087 407.817,88.870 408.438,93.800 409.669 C 98.370 410.811,108.595 409.345,112.800 406.946 C 113.745 406.407,113.690 406.386,111.800 406.574 C 105.944 407.156,103.853 407.201,100.299 406.822 C 98.154 406.593,96.084 406.234,95.699 406.024 C 95.315 405.814,94.015 405.335,92.812 404.960 C 88.479 403.608,82.929 399.330,78.600 394.005 C 74.630 389.123,66.974 383.999,61.800 382.763 C 60.700 382.500,59.620 382.155,59.400 381.997 C 58.707 381.498,55.603 381.149,49.166 380.844 C 43.477 380.574,42.813 380.464,41.566 379.583 C 36.746 376.176,35.107 369.796,37.616 364.200 C 37.813 363.760,38.315 362.476,38.731 361.347 C 40.226 357.289,46.265 349.293,48.819 347.990 C 49.663 347.560,51.039 346.741,51.877 346.171 C 60.547 340.269,70.000 342.654,70.000 350.743 C 70.000 351.513,70.169 352.696,70.375 353.372 C 70.581 354.047,71.118 356.210,71.569 358.177 C 72.461 362.081,74.579 367.030,75.510 367.387 C 75.974 367.565,76.037 367.383,75.812 366.506 C 74.357 360.820,78.010 356.960,83.531 358.350 C 84.559 358.608,87.110 359.188,89.200 359.638 C 99.709 361.898,110.359 370.129,110.396 376.020 C 110.398 376.361,110.574 376.814,110.787 377.027 C 111.000 377.240,111.349 378.131,111.563 379.007 C 111.893 380.357,111.935 380.081,111.839 377.200 C 111.534 368.098,107.577 360.611,100.729 356.181 C 99.214 355.202,97.896 354.400,97.799 354.400 C 97.703 354.400,96.642 353.951,95.441 353.402 C 94.241 352.853,91.941 352.110,90.329 351.752 C 88.718 351.394,87.040 350.954,86.600 350.774 C 86.160 350.594,85.170 350.324,84.400 350.175 C 78.776 349.085,77.388 344.897,80.765 339.212 C 84.145 333.523,87.208 329.819,90.798 327.078 C 92.008 326.155,93.329 325.101,93.736 324.736 C 95.086 323.521,102.962 319.743,105.600 319.045 C 107.030 318.666,108.650 318.184,109.200 317.974 C 111.990 316.909,121.498 316.689,125.800 317.591 " stroke="none" fill="#545454" fill-rule="evenodd"></path><path id="path2" d="M113.204 317.251 C 109.077 317.728,108.720 318.013,112.600 317.732 C 114.360 317.605,115.971 317.343,116.180 317.151 C 116.389 316.958,116.479 316.823,116.380 316.852 C 116.281 316.880,114.852 317.060,113.204 317.251 M120.613 317.221 C 120.701 317.364,122.103 317.593,123.728 317.730 C 125.353 317.867,127.024 318.088,127.441 318.220 C 128.068 318.419,128.092 318.390,127.577 318.054 C 126.877 317.596,120.363 316.817,120.613 317.221 M102.176 320.195 C 101.466 320.738,101.511 320.752,102.700 320.355 C 104.057 319.903,104.368 319.600,103.476 319.600 C 103.189 319.600,102.604 319.868,102.176 320.195 M133.200 319.964 C 133.530 320.150,134.250 320.423,134.800 320.568 L 135.800 320.833 134.800 320.231 C 134.250 319.899,133.530 319.627,133.200 319.626 C 132.667 319.625,132.667 319.662,133.200 319.964 M97.600 322.400 C 96.830 322.822,96.344 323.174,96.520 323.183 C 96.944 323.205,99.200 322.032,99.200 321.790 C 99.200 321.528,99.177 321.537,97.600 322.400 M137.633 321.749 C 138.045 322.117,140.400 323.200,140.400 323.021 C 140.400 322.790,138.182 321.600,137.753 321.600 C 137.596 321.600,137.542 321.667,137.633 321.749 M89.546 328.108 C 87.641 329.846,83.766 334.000,84.049 334.000 C 84.136 334.000,85.886 332.290,87.937 330.200 C 89.989 328.110,91.607 326.404,91.534 326.408 C 91.460 326.413,90.566 327.178,89.546 328.108 M165.458 329.452 C 164.390 329.780,163.587 330.120,163.675 330.208 C 163.762 330.296,164.906 330.031,166.217 329.620 C 167.528 329.209,168.330 328.869,168.000 328.864 C 167.670 328.860,166.526 329.124,165.458 329.452 M181.410 329.143 C 181.551 329.284,182.564 329.602,183.662 329.849 C 184.760 330.096,185.510 330.160,185.329 329.991 C 184.931 329.620,181.046 328.779,181.410 329.143 M113.462 329.900 C 113.360 330.065,114.862 330.200,116.800 330.200 C 118.738 330.200,120.240 330.065,120.138 329.900 C 120.036 329.735,118.534 329.600,116.800 329.600 C 115.066 329.600,113.564 329.735,113.462 329.900 M123.656 331.966 C 124.175 332.387,124.677 332.655,124.771 332.561 C 124.976 332.357,123.544 331.231,123.056 331.213 C 122.866 331.206,123.136 331.545,123.656 331.966 M188.976 331.820 C 189.836 332.462,190.568 332.596,190.230 332.048 C 190.110 331.855,189.605 331.594,189.106 331.468 C 188.232 331.248,188.227 331.260,188.976 331.820 M107.544 332.423 C 106.802 333.069,106.771 333.158,107.400 332.836 C 108.757 332.142,109.422 331.613,108.944 331.606 C 108.694 331.603,108.064 331.970,107.544 332.423 M125.831 333.603 C 126.288 334.151,127.259 335.230,127.989 336.000 L 129.316 337.400 128.102 335.800 C 127.434 334.920,126.463 333.841,125.944 333.403 L 125.000 332.606 125.831 333.603 M155.000 334.650 C 154.281 335.262,154.134 335.505,154.633 335.257 C 155.366 334.893,156.741 333.576,156.349 333.614 C 156.267 333.622,155.660 334.088,155.000 334.650 M193.794 334.482 C 194.451 334.987,196.251 336.565,197.794 337.990 L 200.600 340.579 198.400 338.255 C 197.190 336.977,195.390 335.399,194.400 334.748 C 193.410 334.097,193.137 333.978,193.794 334.482 M110.000 334.288 C 109.450 334.387,108.843 334.618,108.652 334.802 C 108.460 334.986,109.090 334.955,110.052 334.733 C 111.013 334.512,112.970 334.423,114.400 334.536 C 116.040 334.666,116.631 334.619,116.000 334.411 C 114.935 334.058,111.656 333.991,110.000 334.288 M82.555 336.212 C 82.190 336.769,81.964 337.298,82.053 337.387 C 82.142 337.476,82.518 337.020,82.889 336.374 C 83.714 334.936,83.469 334.817,82.555 336.212 M119.167 336.137 C 119.740 336.850,121.200 337.787,121.200 337.441 C 121.200 337.339,120.615 336.844,119.900 336.343 C 118.978 335.696,118.765 335.636,119.167 336.137 M103.900 336.629 C 102.349 337.470,102.525 337.761,104.100 336.959 C 105.608 336.193,105.875 335.994,105.367 336.016 C 105.165 336.025,104.505 336.301,103.900 336.629 M151.775 337.300 L 150.600 338.600 151.900 337.425 C 153.112 336.330,153.384 336.000,153.075 336.000 C 153.006 336.000,152.421 336.585,151.775 337.300 M144.600 338.000 C 144.259 338.660,144.069 339.200,144.179 339.200 C 144.289 339.200,144.659 338.660,145.000 338.000 C 145.341 337.340,145.531 336.800,145.421 336.800 C 145.311 336.800,144.941 337.340,144.600 338.000 M79.800 340.800 C 79.459 341.460,79.269 342.000,79.379 342.000 C 79.489 342.000,79.859 341.460,80.200 340.800 C 80.541 340.140,80.731 339.600,80.621 339.600 C 80.511 339.600,80.141 340.140,79.800 340.800 M147.199 342.500 C 146.610 343.304,146.513 343.584,146.945 343.233 C 147.601 342.700,148.593 341.200,148.289 341.200 C 148.213 341.200,147.722 341.785,147.199 342.500 M132.349 342.200 C 132.565 342.640,133.034 343.360,133.393 343.800 L 134.044 344.600 133.651 343.800 C 133.435 343.360,132.966 342.640,132.607 342.200 L 131.956 341.400 132.349 342.200 M202.000 342.800 C 202.470 343.460,202.944 344.000,203.054 344.000 C 203.164 344.000,202.870 343.460,202.400 342.800 C 201.930 342.140,201.456 341.600,201.346 341.600 C 201.236 341.600,201.530 342.140,202.000 342.800 M65.754 343.694 C 66.168 343.972,67.068 344.644,67.754 345.186 C 68.957 346.138,68.973 346.140,68.201 345.245 C 67.761 344.735,66.861 344.064,66.201 343.753 C 65.492 343.420,65.309 343.396,65.754 343.694 M55.700 344.012 C 54.427 344.524,54.580 344.828,55.900 344.411 C 58.157 343.697,58.224 343.663,57.400 343.657 C 56.960 343.654,56.195 343.813,55.700 344.012 M127.952 344.600 C 128.408 345.260,129.342 346.430,130.029 347.200 C 131.081 348.381,131.147 348.412,130.448 347.400 C 129.992 346.740,129.058 345.570,128.371 344.800 C 127.319 343.619,127.253 343.588,127.952 344.600 M139.424 345.797 C 138.614 346.785,138.188 347.499,138.476 347.384 C 138.986 347.180,141.428 344.000,141.074 344.000 C 140.976 344.000,140.234 344.809,139.424 345.797 M171.021 345.828 C 170.874 346.614,170.645 347.559,170.513 347.928 C 170.381 348.298,170.391 348.496,170.535 348.368 C 170.978 347.977,171.942 344.400,171.605 344.400 C 171.431 344.400,171.168 345.043,171.021 345.828 M52.697 345.566 C 51.098 346.591,50.803 347.006,52.200 346.266 C 53.876 345.377,54.671 344.808,54.200 344.835 C 53.980 344.848,53.304 345.177,52.697 345.566 M144.600 346.400 C 144.259 347.060,144.069 347.600,144.179 347.600 C 144.289 347.600,144.659 347.060,145.000 346.400 C 145.341 345.740,145.531 345.200,145.421 345.200 C 145.311 345.200,144.941 345.740,144.600 346.400 M204.619 347.401 C 204.775 348.060,205.057 348.768,205.245 348.973 C 205.432 349.178,205.415 348.749,205.205 348.019 C 204.718 346.318,204.244 345.819,204.619 347.401 M80.001 347.737 C 80.551 348.362,81.360 349.059,81.800 349.286 C 82.642 349.720,82.618 349.693,80.401 347.797 L 79.003 346.600 80.001 347.737 M46.685 349.641 L 45.000 351.281 46.900 349.756 C 47.945 348.917,48.800 348.179,48.800 348.115 C 48.800 347.739,48.174 348.190,46.685 349.641 M142.138 351.600 C 141.907 352.466,141.858 353.088,142.028 352.983 C 142.382 352.764,142.958 350.425,142.717 350.184 C 142.630 350.097,142.369 350.734,142.138 351.600 M205.067 350.267 C 204.920 350.413,204.800 350.804,204.800 351.135 C 204.800 351.466,204.485 352.111,204.100 352.569 C 203.407 353.392,203.408 353.393,204.258 352.676 C 204.730 352.278,205.200 351.513,205.302 350.976 C 205.503 349.928,205.478 349.855,205.067 350.267 M86.833 350.949 C 86.925 351.031,87.900 351.201,89.000 351.328 C 90.349 351.484,90.674 351.449,90.000 351.220 C 89.001 350.880,86.518 350.668,86.833 350.949 M44.323 352.300 C 43.560 353.189,43.095 354.000,43.349 354.000 C 43.457 354.000,43.930 353.460,44.400 352.800 C 45.332 351.491,45.284 351.181,44.323 352.300 M70.282 354.200 C 70.683 356.790,71.201 358.059,70.936 355.800 C 70.806 354.700,70.551 353.530,70.368 353.200 C 70.175 352.852,70.139 353.272,70.282 354.200 M95.009 353.113 C 95.647 353.659,97.670 354.437,97.426 354.042 C 97.303 353.842,96.620 353.476,95.910 353.229 C 95.199 352.981,94.794 352.929,95.009 353.113 M165.340 355.803 C 163.988 357.231,163.006 358.400,163.159 358.400 C 163.422 358.400,165.023 356.767,167.178 354.300 C 168.977 352.242,167.809 353.197,165.340 355.803 M202.166 354.712 C 201.487 355.310,200.587 356.028,200.166 356.306 C 199.733 356.591,199.922 356.564,200.600 356.244 C 201.260 355.931,202.236 355.209,202.770 354.638 C 204.025 353.294,203.733 353.330,202.166 354.712 M195.800 358.214 C 194.795 358.698,194.763 358.753,195.600 358.551 C 196.150 358.419,196.771 358.150,196.980 357.955 C 197.498 357.471,197.214 357.533,195.800 358.214 M224.000 357.779 C 224.000 357.889,224.540 358.259,225.200 358.600 C 225.860 358.941,226.400 359.131,226.400 359.021 C 226.400 358.911,225.860 358.541,225.200 358.200 C 224.540 357.859,224.000 357.669,224.000 357.779 M80.315 358.328 C 79.939 358.478,80.839 358.611,82.315 358.624 C 84.012 358.640,84.632 358.544,84.000 358.364 C 82.714 357.998,81.184 357.983,80.315 358.328 M39.381 359.637 C 39.029 360.318,38.812 360.945,38.899 361.032 C 38.986 361.119,39.356 360.562,39.722 359.795 C 40.544 358.070,40.259 357.938,39.381 359.637 M140.084 362.430 C 139.973 368.038,142.266 369.895,147.000 368.028 C 147.443 367.854,146.460 367.797,144.800 367.901 C 140.691 368.159,140.471 367.889,140.299 362.385 L 140.169 358.200 140.084 362.430 M160.400 360.449 C 159.006 361.671,159.005 361.672,160.288 360.819 C 160.996 360.348,161.682 359.791,161.812 359.581 C 162.197 358.957,161.877 359.154,160.400 360.449 M91.377 360.363 C 91.491 360.547,92.082 360.797,92.692 360.920 C 93.301 361.043,94.160 361.275,94.600 361.436 C 95.040 361.596,95.283 361.596,95.139 361.436 C 94.753 361.005,91.136 359.973,91.377 360.363 M75.467 361.467 C 75.108 361.826,75.138 364.883,75.506 365.463 C 75.668 365.717,75.800 364.862,75.800 363.564 C 75.800 362.265,75.785 361.202,75.767 361.201 C 75.748 361.201,75.613 361.320,75.467 361.467 M166.278 362.213 C 165.660 362.756,165.314 363.200,165.508 363.200 C 165.702 363.200,166.283 362.750,166.800 362.200 C 167.995 360.928,167.731 360.934,166.278 362.213 M231.200 362.125 C 231.200 362.224,231.861 362.809,232.668 363.425 C 233.476 364.041,234.011 364.341,233.856 364.091 C 233.540 363.579,231.200 361.847,231.200 362.125 M197.058 363.052 C 195.990 363.380,195.187 363.720,195.274 363.807 C 195.480 364.014,198.660 363.073,199.040 362.693 C 199.404 362.330,199.419 362.327,197.058 363.052 M134.840 364.833 C 134.862 365.585,135.030 366.650,135.213 367.200 C 135.429 367.846,135.466 367.420,135.319 366.000 C 135.059 363.483,134.781 362.807,134.840 364.833 M37.483 364.300 C 36.392 366.297,36.241 372.967,37.254 374.403 C 37.595 374.886,37.628 374.854,37.425 374.233 C 36.808 372.349,36.766 368.865,37.332 366.500 C 37.874 364.230,37.925 363.492,37.483 364.300 M162.975 365.300 L 161.800 366.600 163.100 365.425 C 164.312 364.330,164.584 364.000,164.275 364.000 C 164.206 364.000,163.621 364.585,162.975 365.300 M152.700 365.227 C 151.875 365.663,151.200 366.108,151.200 366.218 C 151.200 366.327,151.920 366.049,152.800 365.600 C 153.680 365.151,154.400 364.697,154.400 364.592 C 154.400 364.330,154.397 364.331,152.700 365.227 M105.863 368.619 C 106.928 369.949,108.123 371.479,108.517 372.019 C 109.220 372.980,109.221 372.974,108.560 371.749 C 108.189 371.061,106.994 369.531,105.906 368.349 L 103.926 366.200 105.863 368.619 M160.081 367.372 C 158.227 368.683,157.994 369.006,159.429 368.277 C 160.105 367.934,160.892 367.371,161.178 367.026 C 161.871 366.191,161.654 366.260,160.081 367.372 M217.000 367.495 C 215.597 367.849,214.283 368.417,214.460 368.593 C 214.661 368.794,217.461 367.873,217.859 367.474 C 218.010 367.323,218.058 367.221,217.967 367.246 C 217.875 367.272,217.440 367.384,217.000 367.495 M219.200 368.436 C 218.536 368.979,218.469 369.115,219.000 368.840 C 220.305 368.166,221.028 367.612,220.600 367.615 C 220.380 367.617,219.750 367.986,219.200 368.436 M111.064 371.000 C 111.194 372.100,111.449 373.270,111.632 373.600 C 112.012 374.284,111.645 371.545,111.150 370.000 C 110.951 369.380,110.919 369.760,111.064 371.000 M239.560 370.600 C 240.234 371.905,240.788 372.628,240.785 372.200 C 240.783 371.980,240.414 371.350,239.964 370.800 C 239.421 370.136,239.285 370.069,239.560 370.600 M170.828 372.700 C 170.844 373.305,171.016 374.160,171.210 374.600 C 171.445 375.129,171.481 374.791,171.317 373.600 C 171.079 371.871,171.099 371.824,171.835 372.400 C 172.542 372.955,172.559 372.947,172.051 372.300 C 171.257 371.288,170.796 371.439,170.828 372.700 M137.200 373.284 C 137.200 373.624,137.499 374.149,137.865 374.451 C 138.474 374.953,138.487 374.915,138.011 374.000 C 137.314 372.659,137.200 372.558,137.200 373.284 M173.600 374.600 C 174.346 375.370,175.047 376.000,175.157 376.000 C 175.267 376.000,174.746 375.370,174.000 374.600 C 173.254 373.830,172.553 373.200,172.443 373.200 C 172.333 373.200,172.854 373.830,173.600 374.600 M207.355 375.500 C 207.234 375.885,206.956 376.650,206.737 377.200 C 206.449 377.923,206.460 378.082,206.776 377.773 C 207.240 377.321,208.073 374.800,207.760 374.800 C 207.658 374.800,207.476 375.115,207.355 375.500 M147.200 376.576 C 147.200 377.333,147.338 378.038,147.507 378.143 C 147.676 378.247,147.748 377.628,147.665 376.766 C 147.481 374.832,147.200 374.718,147.200 376.576 M212.267 375.867 C 211.901 376.232,211.929 379.109,212.300 379.338 C 212.465 379.440,212.600 378.641,212.600 377.562 C 212.600 376.483,212.585 375.600,212.567 375.600 C 212.548 375.600,212.413 375.720,212.267 375.867 M111.066 378.800 C 111.196 379.790,111.463 380.774,111.659 380.988 C 112.051 381.414,111.687 379.111,111.154 377.800 C 110.960 377.320,110.924 377.721,111.066 378.800 M173.400 378.350 C 174.060 379.077,175.140 379.928,175.800 380.241 C 176.460 380.555,176.654 380.584,176.232 380.306 C 175.809 380.028,174.729 379.177,173.832 378.415 L 172.200 377.029 173.400 378.350 M177.600 377.427 C 179.383 378.127,180.555 378.395,180.178 378.018 C 179.957 377.797,179.151 377.520,178.388 377.404 C 177.624 377.287,177.270 377.298,177.600 377.427 M242.832 378.375 C 243.159 379.044,243.250 380.993,243.122 384.575 C 243.015 387.579,243.067 389.120,243.245 388.200 C 243.826 385.192,243.662 379.031,242.978 378.176 C 242.390 377.442,242.382 377.453,242.832 378.375 M41.811 379.738 C 42.793 380.407,44.480 380.853,44.177 380.363 C 44.054 380.163,43.614 380.000,43.200 380.000 C 42.786 380.000,42.336 379.820,42.200 379.600 C 42.064 379.380,41.743 379.200,41.487 379.200 C 41.231 379.200,41.377 379.442,41.811 379.738 M189.918 379.600 C 191.368 380.212,203.848 380.304,204.449 379.707 C 204.843 379.316,204.662 379.299,203.573 379.623 C 202.315 379.998,194.046 379.852,190.400 379.390 C 189.215 379.240,189.141 379.272,189.918 379.600 M141.881 380.583 C 142.277 381.124,142.870 381.675,143.199 381.809 C 143.529 381.942,143.270 381.500,142.624 380.826 C 141.208 379.347,140.905 379.248,141.881 380.583 M149.511 381.340 C 150.324 382.409,154.000 385.837,154.000 385.525 C 154.000 385.447,152.795 384.217,151.322 382.791 C 149.850 381.366,149.035 380.713,149.511 381.340 M180.316 382.076 C 180.689 382.449,185.261 383.233,185.547 382.973 C 185.628 382.899,185.268 382.756,184.747 382.656 C 184.226 382.555,182.931 382.298,181.868 382.084 C 180.667 381.843,180.080 381.840,180.316 382.076 M215.046 381.989 C 215.470 382.392,218.616 383.282,218.221 382.888 C 218.070 382.737,217.215 382.397,216.320 382.133 C 215.425 381.869,214.852 381.804,215.046 381.989 M145.266 383.989 C 146.220 384.863,147.131 385.583,147.291 385.589 C 147.451 385.595,146.801 384.880,145.846 384.000 C 144.892 383.120,143.980 382.400,143.821 382.400 C 143.662 382.400,144.312 383.115,145.266 383.989 M66.000 384.179 C 66.000 384.289,66.540 384.659,67.200 385.000 C 67.860 385.341,68.400 385.531,68.400 385.421 C 68.400 385.311,67.860 384.941,67.200 384.600 C 66.540 384.259,66.000 384.069,66.000 384.179 M200.000 384.342 C 200.330 384.536,202.268 384.815,204.306 384.962 C 206.344 385.109,208.324 385.330,208.706 385.453 C 209.269 385.633,209.291 385.598,208.824 385.267 C 208.508 385.043,206.708 384.747,204.824 384.610 C 202.941 384.473,200.950 384.277,200.400 384.175 C 199.693 384.043,199.576 384.092,200.000 384.342 M222.011 385.061 C 222.555 385.425,223.459 386.100,224.019 386.561 C 224.580 387.023,224.362 386.725,223.535 385.900 C 222.708 385.075,221.804 384.400,221.526 384.400 C 221.249 384.400,221.467 384.698,222.011 385.061 M155.600 387.000 C 156.346 387.770,157.047 388.400,157.157 388.400 C 157.267 388.400,156.746 387.770,156.000 387.000 C 155.254 386.230,154.553 385.600,154.443 385.600 C 154.333 385.600,154.854 386.230,155.600 387.000 M70.400 386.482 C 71.062 387.177,77.285 392.061,77.074 391.720 C 76.776 391.237,71.685 387.082,70.800 386.599 C 70.470 386.419,70.290 386.366,70.400 386.482 M213.009 386.713 C 213.647 387.259,215.670 388.037,215.426 387.642 C 215.303 387.442,214.620 387.076,213.910 386.829 C 213.199 386.581,212.794 386.529,213.009 386.713 M216.944 388.709 C 217.260 389.221,219.600 390.953,219.600 390.675 C 219.600 390.576,218.939 389.991,218.132 389.375 C 217.324 388.759,216.789 388.459,216.944 388.709 M53.941 389.301 C 54.143 389.503,54.733 389.601,55.254 389.519 C 56.055 389.393,55.998 389.337,54.887 389.152 C 54.093 389.021,53.719 389.079,53.941 389.301 M33.900 391.829 C 32.405 392.640,32.496 392.978,34.000 392.200 C 34.660 391.859,35.200 391.494,35.200 391.390 C 35.200 391.132,35.157 391.147,33.900 391.829 M220.013 391.500 C 220.020 391.665,220.769 392.520,221.677 393.400 L 223.327 395.000 221.815 393.100 C 220.314 391.214,219.988 390.924,220.013 391.500 M60.590 393.382 C 60.596 394.338,60.735 395.038,60.900 394.936 C 61.288 394.699,61.277 392.741,60.884 392.122 C 60.717 391.859,60.585 392.426,60.590 393.382 M154.160 392.400 C 154.521 392.950,155.368 394.255,156.043 395.300 C 156.717 396.345,157.349 397.200,157.446 397.200 C 157.778 397.200,155.806 394.034,154.652 392.714 C 153.984 391.950,153.778 391.819,154.160 392.400 M161.600 393.200 C 162.297 394.080,162.957 394.800,163.067 394.800 C 163.177 394.800,162.697 394.080,162.000 393.200 C 161.303 392.320,160.643 391.600,160.533 391.600 C 160.423 391.600,160.903 392.320,161.600 393.200 M228.439 393.376 C 228.901 394.159,229.356 394.800,229.450 394.800 C 229.734 394.800,228.436 392.469,228.002 392.201 C 227.780 392.064,227.977 392.593,228.439 393.376 M78.594 393.976 C 80.756 396.553,84.186 400.050,84.979 400.486 C 85.408 400.721,84.741 399.943,83.498 398.757 C 82.254 397.570,80.374 395.689,79.318 394.576 C 78.263 393.463,77.937 393.193,78.594 393.976 M127.444 395.200 C 128.311 396.988,128.578 397.267,128.207 396.000 C 128.046 395.450,127.656 394.730,127.340 394.400 C 126.923 393.965,126.952 394.184,127.444 395.200 M129.734 395.707 C 130.430 396.426,131.077 396.964,131.171 396.903 C 131.399 396.754,129.131 394.400,128.759 394.400 C 128.599 394.400,129.038 394.988,129.734 395.707 M240.926 394.900 C 240.132 396.134,239.667 397.206,240.020 396.988 C 240.455 396.719,241.722 394.400,241.434 394.400 C 241.331 394.400,241.103 394.625,240.926 394.900 M230.000 395.725 C 230.000 395.794,230.585 396.379,231.300 397.025 L 232.600 398.200 231.425 396.900 C 230.330 395.688,230.000 395.416,230.000 395.725 M67.600 398.124 C 67.270 398.399,66.552 399.158,66.005 399.811 C 65.278 400.681,65.491 400.571,66.799 399.400 C 67.783 398.520,68.665 397.755,68.761 397.700 C 68.856 397.645,68.768 397.606,68.567 397.613 C 68.365 397.620,67.930 397.850,67.600 398.124 M237.435 398.663 C 236.522 399.157,235.980 399.205,234.934 398.884 C 234.200 398.659,233.691 398.624,233.804 398.806 C 234.426 399.813,238.800 399.273,238.800 398.190 C 238.800 397.931,238.761 397.945,237.435 398.663 M74.200 399.387 C 74.860 399.967,76.120 400.988,77.000 401.658 L 78.600 402.876 77.000 401.422 C 76.120 400.623,74.860 399.601,74.200 399.151 L 73.000 398.334 74.200 399.387 M58.600 400.000 C 58.259 400.660,58.069 401.200,58.179 401.200 C 58.289 401.200,58.659 400.660,59.000 400.000 C 59.341 399.340,59.531 398.800,59.421 398.800 C 59.311 398.800,58.941 399.340,58.600 400.000 M158.626 399.800 C 158.784 400.240,158.998 401.097,159.103 401.705 C 159.207 402.313,159.432 402.896,159.603 403.002 C 160.037 403.270,159.420 400.700,158.827 399.767 C 158.356 399.026,158.349 399.027,158.626 399.800 M226.073 400.675 C 226.779 402.335,227.294 402.788,226.771 401.290 C 226.524 400.580,226.158 399.897,225.958 399.774 C 225.758 399.650,225.809 400.056,226.073 400.675 M22.384 402.423 C 21.905 403.096,21.579 403.713,21.661 403.794 C 21.743 403.876,22.214 403.326,22.708 402.571 C 23.823 400.871,23.571 400.756,22.384 402.423 M130.200 410.034 C 130.200 414.525,130.068 418.830,129.907 419.600 C 129.666 420.748,129.695 420.861,130.068 420.226 C 130.638 419.256,130.989 407.013,130.532 404.034 C 130.296 402.495,130.200 404.232,130.200 410.034 M134.849 404.409 C 135.454 406.200,135.795 406.548,135.428 405.000 C 135.271 404.340,134.971 403.624,134.761 403.409 C 134.550 403.194,134.590 403.644,134.849 404.409 M82.800 405.779 C 82.800 405.889,83.340 406.259,84.000 406.600 C 84.660 406.941,85.200 407.131,85.200 407.021 C 85.200 406.911,84.660 406.541,84.000 406.200 C 83.340 405.859,82.800 405.669,82.800 405.779 M95.867 406.027 C 96.618 406.778,104.339 407.252,108.891 406.826 C 111.316 406.600,113.458 406.512,113.650 406.631 C 113.843 406.750,114.000 406.639,114.000 406.384 C 114.000 406.051,113.302 406.006,111.500 406.226 C 108.055 406.646,99.374 406.546,97.252 406.062 C 96.267 405.837,95.662 405.822,95.867 406.027 M52.800 407.800 C 51.828 408.790,51.123 409.600,51.233 409.600 C 51.343 409.600,52.228 408.790,53.200 407.800 C 54.172 406.810,54.877 406.000,54.767 406.000 C 54.657 406.000,53.772 406.810,52.800 407.800 M193.376 406.622 C 192.612 407.234,192.613 407.238,193.400 406.876 C 193.840 406.674,194.470 406.408,194.800 406.286 C 195.318 406.093,195.315 406.059,194.776 406.032 C 194.434 406.014,193.804 406.280,193.376 406.622 M19.667 407.580 C 19.433 408.251,19.327 408.800,19.431 408.800 C 19.701 408.800,20.456 406.722,20.257 406.524 C 20.167 406.433,19.901 406.908,19.667 407.580 M228.200 411.598 C 228.200 414.196,228.335 416.239,228.500 416.137 C 228.887 415.899,228.881 407.948,228.494 407.337 C 228.332 407.082,228.200 409.000,228.200 411.598 M182.863 410.165 C 181.509 411.576,180.400 412.866,180.400 413.032 C 180.400 413.198,180.453 413.258,180.518 413.167 C 180.583 413.075,181.781 411.785,183.181 410.300 C 184.581 408.815,185.637 407.600,185.527 407.600 C 185.417 407.600,184.218 408.754,182.863 410.165 M57.400 409.035 L 56.200 410.066 57.500 409.206 C 58.215 408.733,58.800 408.268,58.800 408.173 C 58.800 407.873,58.631 407.978,57.400 409.035 M88.220 408.432 C 88.324 408.600,88.992 408.856,89.705 408.999 C 90.417 409.142,91.360 409.359,91.800 409.480 C 92.240 409.600,92.492 409.584,92.359 409.443 C 91.996 409.054,88.002 408.079,88.220 408.432 M108.075 408.673 C 107.126 409.009,106.421 409.354,106.507 409.440 C 106.593 409.527,107.640 409.251,108.832 408.828 C 110.024 408.405,110.730 408.060,110.400 408.061 C 110.070 408.062,109.024 408.338,108.075 408.673 M54.600 410.827 C 53.940 411.250,53.605 411.597,53.856 411.598 C 54.106 411.599,54.736 411.246,55.256 410.813 C 56.445 409.823,56.159 409.829,54.600 410.827 M136.093 411.200 C 136.093 411.970,136.175 412.285,136.276 411.900 C 136.376 411.515,136.376 410.885,136.276 410.500 C 136.175 410.115,136.093 410.430,136.093 411.200 M18.191 411.614 C 16.984 413.568,17.151 425.544,18.413 427.505 C 18.820 428.138,18.839 428.131,18.617 427.432 C 17.569 424.132,17.450 415.713,18.403 412.390 C 18.748 411.185,18.659 410.857,18.191 411.614 M45.211 413.820 C 44.447 414.359,43.997 414.799,44.211 414.798 C 44.425 414.797,45.140 414.353,45.800 413.812 C 47.341 412.549,47.005 412.553,45.211 413.820 M49.300 413.434 C 48.585 413.746,48.000 414.082,48.000 414.180 C 48.000 414.475,50.384 413.549,50.624 413.161 C 50.891 412.729,50.929 412.721,49.300 413.434 M159.476 413.100 C 159.201 413.583,158.708 416.621,158.942 416.389 C 159.196 416.138,159.976 412.800,159.781 412.800 C 159.707 412.800,159.570 412.935,159.476 413.100 M161.248 414.800 C 160.541 415.680,160.106 416.396,160.281 416.391 C 160.596 416.383,163.001 413.200,162.693 413.200 C 162.605 413.200,161.955 413.920,161.248 414.800 M42.973 415.244 C 42.588 415.867,43.058 416.119,43.814 415.696 C 44.416 415.359,44.420 415.293,43.857 415.077 C 43.510 414.944,43.112 415.019,42.973 415.244 M178.388 416.822 C 178.146 417.274,178.007 417.822,178.080 418.039 C 178.152 418.257,178.418 417.887,178.671 417.217 C 179.197 415.825,179.039 415.605,178.388 416.822 M135.413 417.300 C 134.962 418.698,134.523 421.636,134.809 421.340 C 135.155 420.983,136.006 416.800,135.733 416.800 C 135.646 416.800,135.502 417.025,135.413 417.300 M68.715 418.610 C 68.592 419.045,68.369 419.760,68.220 420.200 C 68.071 420.640,68.242 420.494,68.600 419.876 C 68.958 419.258,69.181 418.542,69.095 418.286 C 69.010 418.030,68.839 418.176,68.715 418.610 M183.050 420.050 C 182.722 421.688,182.779 428.407,183.128 429.283 C 183.278 429.658,183.400 427.453,183.400 424.383 C 183.400 418.224,183.404 418.278,183.050 420.050 M226.379 421.855 C 226.158 422.436,226.052 422.985,226.143 423.076 C 226.233 423.167,226.499 422.692,226.733 422.020 C 227.253 420.528,226.939 420.382,226.379 421.855 M63.650 422.100 C 63.207 423.305,62.737 425.796,63.003 425.530 C 63.275 425.259,64.332 421.200,64.132 421.200 C 64.048 421.200,63.831 421.605,63.650 422.100 M133.196 425.633 C 133.193 425.725,132.923 426.686,132.594 427.768 C 132.266 428.850,132.130 429.603,132.292 429.441 C 132.698 429.035,133.607 425.874,133.383 425.649 C 133.282 425.549,133.198 425.542,133.196 425.633 M223.385 427.300 C 222.768 428.235,222.520 428.789,222.832 428.531 C 223.433 428.034,224.964 425.600,224.676 425.600 C 224.583 425.600,224.002 426.365,223.385 427.300 M127.977 427.061 C 127.755 427.644,127.632 428.297,127.704 428.512 C 127.776 428.727,128.035 428.250,128.280 427.451 C 128.794 425.774,128.574 425.490,127.977 427.061 M67.852 430.384 C 67.937 431.365,68.180 432.340,68.390 432.550 C 68.633 432.793,68.640 432.434,68.411 431.566 C 68.213 430.815,67.971 429.840,67.873 429.400 C 67.775 428.960,67.766 429.403,67.852 430.384 M19.787 431.575 C 20.121 432.221,20.576 432.861,20.798 432.999 C 21.020 433.136,20.823 432.607,20.361 431.824 C 19.348 430.107,18.935 429.928,19.787 431.575 M63.067 432.400 C 63.451 434.516,64.067 435.743,63.771 433.800 C 63.637 432.920,63.366 431.930,63.170 431.600 C 62.942 431.216,62.905 431.505,63.067 432.400 M178.054 433.240 C 178.268 434.196,178.548 435.072,178.675 435.189 C 179.040 435.522,178.377 432.240,178.001 431.852 C 177.815 431.660,177.839 432.285,178.054 433.240 M215.097 434.766 C 213.498 435.791,213.203 436.206,214.600 435.466 C 216.276 434.577,217.071 434.008,216.600 434.035 C 216.380 434.048,215.704 434.377,215.097 434.766 M22.574 434.758 C 22.723 434.999,23.216 435.395,23.671 435.638 C 24.262 435.954,24.420 435.956,24.226 435.642 C 24.077 435.401,23.584 435.005,23.129 434.762 C 22.538 434.446,22.380 434.444,22.574 434.758 M46.976 435.422 C 46.222 436.027,46.224 436.033,47.047 435.636 C 47.513 435.412,48.008 435.342,48.147 435.481 C 48.286 435.620,48.400 435.523,48.400 435.267 C 48.400 434.627,47.901 434.682,46.976 435.422 M130.460 437.676 C 130.427 439.368,130.535 440.837,130.700 440.939 C 130.865 441.042,130.949 440.107,130.887 438.863 C 130.692 434.956,130.522 434.485,130.460 437.676 M45.200 437.649 C 43.806 438.871,43.805 438.872,45.088 438.019 C 45.796 437.548,46.482 436.991,46.612 436.781 C 46.997 436.157,46.677 436.354,45.200 437.649 M42.400 437.197 C 41.850 437.380,40.884 437.645,40.253 437.784 C 39.622 437.924,39.177 438.110,39.264 438.197 C 39.514 438.448,42.960 437.594,43.380 437.177 C 43.817 436.743,43.756 436.745,42.400 437.197 M191.846 437.189 C 192.270 437.592,195.416 438.482,195.021 438.088 C 194.870 437.937,194.015 437.597,193.120 437.333 C 192.225 437.069,191.652 437.004,191.846 437.189 M27.211 437.342 C 27.328 437.460,28.204 437.732,29.160 437.946 C 30.115 438.161,30.740 438.193,30.548 438.017 C 30.164 437.664,26.872 436.999,27.211 437.342 M16.322 439.620 C 15.949 439.837,15.258 440.597,14.787 441.308 L 13.931 442.600 14.794 441.600 C 15.269 441.050,16.050 440.289,16.529 439.909 C 17.487 439.149,17.382 439.002,16.322 439.620 M20.000 439.383 C 20.000 439.563,22.402 440.800,22.750 440.800 C 23.097 440.800,21.494 439.767,20.700 439.479 C 20.315 439.339,20.000 439.296,20.000 439.383 M25.450 442.010 C 25.660 442.220,26.635 442.463,27.616 442.548 C 28.597 442.634,29.040 442.625,28.600 442.527 C 28.160 442.429,27.185 442.187,26.434 441.989 C 25.566 441.760,25.207 441.767,25.450 442.010 M37.098 441.836 C 36.968 441.965,35.273 442.302,33.331 442.585 C 31.389 442.868,30.250 443.118,30.800 443.141 C 32.517 443.214,36.895 442.465,37.338 442.022 C 37.570 441.790,37.664 441.600,37.547 441.600 C 37.429 441.600,37.227 441.706,37.098 441.836 M75.400 442.207 C 75.840 442.566,76.560 443.035,77.000 443.251 L 77.800 443.644 77.000 442.993 C 76.560 442.634,75.840 442.165,75.400 441.949 L 74.600 441.556 75.400 442.207 M114.900 442.446 C 113.537 443.319,113.095 443.906,114.300 443.243 C 115.218 442.739,116.656 441.627,116.400 441.619 C 116.290 441.616,115.615 441.988,114.900 442.446 M13.223 443.558 C 12.166 445.531,12.442 453.011,13.614 454.169 C 13.900 454.451,13.886 454.186,13.574 453.400 C 12.911 451.731,12.871 444.840,13.518 443.700 C 13.798 443.205,13.938 442.800,13.828 442.800 C 13.718 442.800,13.446 443.141,13.223 443.558 M132.600 443.966 C 133.378 444.861,135.600 446.598,135.600 446.312 C 135.600 446.234,134.745 445.467,133.700 444.608 C 132.655 443.749,132.160 443.460,132.600 443.966 M79.374 444.358 C 79.497 444.558,80.180 444.924,80.890 445.171 C 82.388 445.694,81.935 445.179,80.275 444.473 C 79.656 444.209,79.250 444.158,79.374 444.358 M63.038 446.495 C 61.562 448.035,61.728 448.229,63.337 446.844 C 63.973 446.296,65.040 444.738,64.714 444.833 C 64.651 444.852,63.897 445.599,63.038 446.495 M103.732 446.955 C 100.967 447.550,100.613 447.996,103.285 447.517 C 104.448 447.309,105.571 446.972,105.780 446.769 C 105.989 446.566,106.079 446.425,105.980 446.455 C 105.881 446.486,104.870 446.711,103.732 446.955 M87.600 447.355 C 87.600 447.440,88.130 447.587,88.779 447.682 C 89.427 447.777,89.867 447.708,89.755 447.528 C 89.557 447.207,87.600 447.050,87.600 447.355 M56.530 449.355 C 55.612 449.603,54.743 449.924,54.599 450.067 C 54.239 450.428,57.581 449.654,58.365 449.195 C 59.154 448.734,58.677 448.776,56.530 449.355 M139.600 448.979 C 139.600 449.089,140.140 449.459,140.800 449.800 C 141.460 450.141,142.000 450.331,142.000 450.221 C 142.000 450.111,141.460 449.741,140.800 449.400 C 140.140 449.059,139.600 448.869,139.600 448.979 M145.679 451.578 C 146.496 452.105,150.057 452.816,149.800 452.401 C 149.701 452.240,148.940 452.011,148.110 451.893 C 147.279 451.775,146.240 451.557,145.800 451.409 C 145.102 451.174,145.087 451.196,145.679 451.578 M164.600 451.600 C 164.160 451.789,163.316 451.956,162.724 451.972 C 162.132 451.987,161.551 452.156,161.433 452.347 C 161.168 452.775,164.581 452.169,165.521 451.620 C 166.347 451.138,165.707 451.124,164.600 451.600 M49.262 453.700 C 49.056 454.415,48.766 455.360,48.618 455.800 C 48.451 456.296,48.566 456.219,48.919 455.600 C 49.534 454.522,50.135 452.400,49.826 452.400 C 49.723 452.400,49.469 452.985,49.262 453.700 M14.987 457.575 C 15.321 458.221,15.776 458.861,15.998 458.999 C 16.220 459.136,16.023 458.607,15.561 457.824 C 14.548 456.107,14.135 455.928,14.987 457.575 M25.020 466.032 C 25.124 466.200,25.792 466.456,26.505 466.599 C 27.217 466.742,28.160 466.959,28.600 467.080 C 29.040 467.200,29.292 467.184,29.159 467.043 C 28.796 466.654,24.802 465.679,25.020 466.032 M36.600 466.215 C 35.012 466.765,35.010 466.767,36.400 466.542 C 37.170 466.418,37.971 466.155,38.180 465.958 C 38.647 465.518,38.587 465.528,36.600 466.215 " stroke="none" fill="#9aacb1" fill-rule="evenodd"></path></g></svg>